<svg width="24" height="24" viewBox="0 0 24 24" fill="none" xmlns="http://www.w3.org/2000/svg">
<g clip-path="url(#clip0_4296_1213)">
<path d="M22.4145 0.754263C21.5287 -0.131467 20.0876 -0.131467 19.2018 0.754263L18.2 1.75602C18.0908 1.86524 17.9943 1.98384 17.9109 2.10991L20.9407 5.33023C21.1112 5.23194 21.27 5.11122 21.4127 4.9686L22.4144 3.96685C23.3001 3.08121 23.3001 1.63999 22.4145 0.754263Z" fill="#FFB454"/>
<path d="M22.4144 3.9669C23.3001 3.08122 23.3001 1.64 22.4144 0.754272L19.4369 3.73185L20.9408 5.33029C21.1113 5.232 21.2701 5.11128 21.4127 4.96866L22.4144 3.9669Z" fill="#FF8659"/>
<path d="M11.827 19.6447L8.8024 16.6201C8.73006 16.5478 8.63191 16.5071 8.52958 16.5071C8.42726 16.5071 8.32911 16.5477 8.25677 16.6201L4.5601 20.3168C4.40941 20.4675 4.40941 20.7118 4.5601 20.8624L7.58465 23.887C7.65807 23.9605 7.75664 24.0001 7.85751 24.0001C7.89528 24.0001 7.93333 23.9945 7.97053 23.9831C8.10701 23.9413 8.20924 23.8275 8.23631 23.6873L8.62464 21.6751L9.61499 20.6847L11.6273 20.2964C11.7675 20.2693 11.8812 20.1671 11.9231 20.0306C11.9649 19.8941 11.928 19.7457 11.827 19.6447Z" fill="#FF8659"/>
<path d="M12.4577 7.81421C12.4246 7.84334 12.392 7.87337 12.3603 7.90504L1.43053 18.8349C1.04408 19.2213 0.831268 19.7369 0.831268 20.2865C0.831268 20.8362 1.04408 21.3518 1.43053 21.7382C1.81693 22.1247 2.33249 22.3375 2.88216 22.3375C3.43183 22.3375 3.94739 22.1247 4.33384 21.7382L15.2637 10.8084C15.2953 10.7767 15.3254 10.7441 15.3545 10.711L12.4577 7.81421Z" fill="#FFD845"/>
<path d="M15.2637 10.8084C15.2953 10.7768 15.3254 10.7442 15.3545 10.711L13.9061 9.26263L1.43057 21.7382C1.81697 22.1246 2.33254 22.3375 2.8822 22.3375C3.43187 22.3375 3.94744 22.1246 4.33388 21.7382L15.2637 10.8084Z" fill="#FFB454"/>
<path d="M23.0988 7.16542C22.8544 5.50271 21.9849 3.8522 20.6507 2.518C19.3165 1.1838 17.6661 0.314349 16.0033 0.0699156C14.2636 -0.185824 12.7138 0.265087 11.6393 1.33951C10.5648 2.41399 10.114 3.96381 10.3697 5.70351C10.6142 7.36622 11.4836 9.01668 12.8178 10.3509C14.152 11.6852 15.8025 12.5546 17.4652 12.799C17.7836 12.8458 18.0953 12.869 18.3992 12.8689C19.7559 12.8689 20.9514 12.4073 21.8292 11.5294C22.9037 10.4549 23.3546 8.90512 23.0988 7.16542ZM19.7874 9.48472C19.4135 9.85859 18.9073 10.0495 18.3155 10.0495C18.0158 10.0495 17.6942 10.0006 17.3565 9.90162C16.4992 9.65033 15.6061 9.09105 14.8419 8.32687C14.0777 7.56266 13.5184 6.66966 13.2671 5.81226C12.9728 4.80793 13.1209 3.94463 13.6841 3.3814C14.2473 2.81822 15.1104 2.67006 16.115 2.96445C16.9723 3.21574 17.8654 3.77502 18.6296 4.53919C19.3938 5.30341 19.953 6.19641 20.2043 7.05381C20.4987 8.05814 20.3506 8.92144 19.7874 9.48472Z" fill="#FFD845"/>
<path d="M23.0988 7.16544C22.8544 5.50273 21.985 3.85227 20.6508 2.51807L18.6296 4.53921C19.3938 5.30338 19.9531 6.19643 20.2043 7.05378C20.4987 8.05816 20.3507 8.92146 19.7874 9.48469C19.4135 9.85857 18.9074 10.0495 18.3156 10.0495C18.0158 10.0495 17.6942 10.0006 17.3565 9.90159C16.4992 9.65031 15.6061 9.09102 14.8419 8.32685L12.8179 10.3509C14.1521 11.6851 15.8025 12.5546 17.4653 12.799C17.7836 12.8458 18.0954 12.8689 18.3992 12.8689C19.756 12.8688 20.9514 12.4072 21.8292 11.5294C22.9037 10.4549 23.3546 8.90514 23.0988 7.16544Z" fill="#FFB454"/>
<path d="M12.033 14.914C11.847 14.914 11.6678 14.8404 11.5354 14.7079L8.46083 11.6333C8.31637 11.4889 8.24187 11.2889 8.25655 11.0851L8.39336 9.18718C8.41851 8.8384 8.69592 8.56099 9.0447 8.53589L10.9426 8.39913C11.1464 8.38402 11.3464 8.45899 11.4908 8.6034L14.5654 11.678C14.7098 11.8224 14.7844 12.0224 14.7696 12.2262L14.6329 14.1241C14.6078 14.4728 14.3304 14.7503 13.9815 14.7754L12.0836 14.9122C12.0667 14.9134 12.0498 14.914 12.033 14.914Z" fill="#FFB454"/>
<path d="M14.6328 14.1241L14.7696 12.2262C14.7843 12.0224 14.7097 11.8223 14.5653 11.6779L13.0281 10.1407L9.99817 13.1706L11.5355 14.7079C11.6679 14.8403 11.8471 14.914 12.033 14.914C12.0498 14.914 12.0667 14.9134 12.0836 14.9122L13.9815 14.7754C14.3303 14.7503 14.6077 14.4729 14.6328 14.1241Z" fill="#FF8659"/>
<path fill-rule="evenodd" clip-rule="evenodd" d="M9.75336 9.89591L9.6835 10.8655L12.3032 13.4852L13.2728 13.4153L13.3426 12.4458L10.7229 9.82605L9.75336 9.89591Z" fill="#FF405C"/>
<path fill-rule="evenodd" clip-rule="evenodd" d="M13.3426 12.4458L12.0328 11.1359L10.9933 12.1754L12.3032 13.4853L13.2728 13.4154L13.3426 12.4458Z" fill="#EA1C81"/>
</g>
<defs>
<clipPath id="clip0_4296_1213">
<rect width="24" height="24" fill="white"/>
</clipPath>
</defs>
</svg>
