<svg width="40" height="40" viewBox="0 0 40 40" fill="none" xmlns="http://www.w3.org/2000/svg">
<g clip-path="url(#clip0_4296_1522)">
<path d="M34.3359 33.1173H5.66416C5.10112 33.1173 4.61768 32.7169 4.51284 32.1637L3.96393 29.2683L4.85877 24.237L2.27166 20.3416L0.0205698 8.46734C-0.0692739 7.99359 0.140335 7.51305 0.548773 7.25664C0.957132 7.00023 1.48088 7.02016 1.86877 7.30688L9.8808 13.2318C10.3565 13.5836 10.4953 14.2348 10.2046 14.7502L9.24018 16.4584L11.4882 17.7002L15.2806 12.7412L13.8531 10.902C13.5245 10.4788 13.5249 9.88648 13.8542 9.46367L19.0754 2.75672C19.2974 2.47148 19.6386 2.30469 20.0001 2.30469C20.3616 2.30469 20.7028 2.47148 20.9248 2.75672L26.146 9.46367C26.4752 9.88648 26.4756 10.4788 26.1471 10.902L24.7196 12.7412L28.512 17.7002L30.76 16.4584L29.7956 14.7502C29.5048 14.2348 29.6436 13.5836 30.1194 13.2318L38.1315 7.30688C38.5192 7.02016 39.0431 7.00039 39.4514 7.25664C39.8599 7.51305 40.0695 7.99359 39.9796 8.46734L37.7286 20.3416L33.6621 24.3168L36.0364 29.2684L35.4874 32.1637C35.3824 32.7169 34.8989 33.1173 34.3359 33.1173Z" fill="#FFF36C"/>
<path d="M39.4513 7.25672C39.0429 7.00047 38.5191 7.02023 38.1313 7.30695L30.1192 13.2319C29.6435 13.5837 29.5046 14.2349 29.7955 14.7502L30.7598 16.4584L28.5118 17.7003L24.7195 12.7413L26.147 10.9021C26.4755 10.4788 26.4751 9.88656 26.1459 9.46375L20.9246 2.7568C20.7027 2.47148 20.3615 2.30469 20 2.30469V33.1173H34.3359C34.8989 33.1173 35.3823 32.717 35.4872 32.1638L36.0361 29.2684L33.6619 24.3168L37.7284 20.3416L39.9794 8.46734C40.0693 7.99359 39.8597 7.51312 39.4513 7.25672Z" fill="#FFDE46"/>
<path d="M20 28.2652C19.7811 28.2652 19.5622 28.2039 19.3701 28.0814L16.0201 25.9459C15.6825 25.7307 15.4781 25.3581 15.4781 24.9578V20.6866C15.4781 20.2863 15.6825 19.9136 16.0201 19.6985L19.3701 17.5628C19.7544 17.3179 20.2457 17.3179 20.63 17.5628L23.98 19.6985C24.3176 19.9137 24.522 20.2863 24.522 20.6866V24.9578C24.522 25.3581 24.3176 25.7308 23.98 25.9459L20.63 28.0814C20.4378 28.2039 20.2189 28.2652 20 28.2652Z" fill="#FFD845"/>
<path d="M23.9799 19.6984L20.6299 17.5628C20.4378 17.4404 20.2189 17.3792 20 17.3792V28.2652C20.2189 28.2652 20.4378 28.2039 20.6299 28.0814L23.9799 25.9459C24.3175 25.7307 24.5219 25.3581 24.5219 24.9577V20.6866C24.5219 20.2863 24.3176 19.9137 23.9799 19.6984Z" fill="#FFB454"/>
<path d="M36.25 30.6641H3.75C3.10281 30.6641 2.57812 31.1887 2.57812 31.8359V36.5234C2.57812 37.1706 3.10281 37.6953 3.75 37.6953H36.25C36.8972 37.6953 37.4219 37.1706 37.4219 36.5234V31.8359C37.4219 31.1887 36.8972 30.6641 36.25 30.6641Z" fill="#FFD845"/>
<path d="M36.0361 29.2684L36.5372 26.6249L35.1645 24.2237L37.2273 22.9849L37.7284 20.3416C36.9994 19.902 36.1459 19.6484 35.2344 19.6484C32.5635 19.6484 30.3906 21.8213 30.3906 24.4922C30.3906 27.163 32.5635 29.3359 35.2344 29.3359C35.5076 29.3359 35.7752 29.312 36.0361 29.2684Z" fill="#FFB454"/>
<path fill-rule="evenodd" clip-rule="evenodd" d="M17.8219 21.3293V24.315L20 25.7036L22.1782 24.315V21.3293L20 19.9407L17.8219 21.3293Z" fill="#B760EA"/>
<path d="M9.6094 24.4922C9.6094 21.8213 7.43651 19.6484 4.76565 19.6484C3.85401 19.6484 3.00065 19.902 2.27167 20.3416L2.77276 22.9849L4.81339 24.4922L3.46284 26.6249L3.96393 29.2684C4.22487 29.312 4.49245 29.3359 4.76565 29.3359C7.43651 29.3359 9.6094 27.163 9.6094 24.4922Z" fill="#FFD845"/>
<path fill-rule="evenodd" clip-rule="evenodd" d="M36.5373 26.6249L37.2273 22.9849C36.7704 22.3823 36.0472 21.9922 35.2344 21.9922C33.8559 21.9922 32.7344 23.1137 32.7344 24.4922C32.7344 25.8707 33.8559 26.9922 35.2344 26.9922C35.7114 26.9922 36.1576 26.8577 36.5373 26.6249Z" fill="#40D123"/>
<path fill-rule="evenodd" clip-rule="evenodd" d="M3.46277 26.6249C3.84245 26.8577 4.28855 26.9922 4.76566 26.9922C6.14417 26.9922 7.26566 25.8707 7.26566 24.4922C7.26566 23.1137 6.14417 21.9922 4.76566 21.9922C3.95284 21.9922 3.22964 22.3823 2.77277 22.9849L3.46277 26.6249Z" fill="#FF405C"/>
<path fill-rule="evenodd" clip-rule="evenodd" d="M20 19.9407V25.7035L22.1781 24.3149V21.3292L20 19.9407Z" fill="#A24BDB"/>
<path d="M36.25 30.6641H20V37.6953H36.25C36.8972 37.6953 37.4219 37.1706 37.4219 36.5234V31.8359C37.4219 31.1887 36.8972 30.6641 36.25 30.6641Z" fill="#FFB454"/>
</g>
<defs>
<clipPath id="clip0_4296_1522">
<rect width="40" height="40" fill="white"/>
</clipPath>
</defs>
</svg>
