<svg width="32" height="32" viewBox="0 0 32 32" fill="none" xmlns="http://www.w3.org/2000/svg">
<path d="M2 16L16 3L30 16H21.1579V29H10.8421V16H2Z" fill="#E12151"/>
<path d="M15.2444 2.29513C15.6678 1.90162 16.3313 1.90162 16.7546 2.29513L30.6574 15.2184C30.9832 15.5216 31.0883 15.9891 30.9222 16.3984C30.7558 16.808 30.3511 17.0767 29.9018 17.0767H22.2189V28.9231C22.2189 29.5178 21.7275 30 21.1213 30H10.8778C10.2716 30 9.78022 29.5178 9.78022 28.9231V17.0767H2.09731C1.648 17.0767 1.24433 16.8079 1.07799 16.3984C0.911677 15.9889 1.01659 15.5216 1.34274 15.2184L15.2444 2.29513ZM4.85085 14.9229H10.8778C11.4839 14.9229 11.9753 15.405 11.9753 15.9998V27.8461H20.0237V15.9998C20.0237 15.4051 20.5153 14.9231 21.1213 14.9229H27.1482L15.999 4.55944L4.85085 14.9229Z" fill="#E12151"/>
</svg>
