<svg width="112" height="71" viewBox="0 0 112 71" fill="none" xmlns="http://www.w3.org/2000/svg">
<path d="M0 20.8C0 16.3196 0 14.0794 0.871948 12.3681C1.63893 10.8628 2.86278 9.63893 4.36808 8.87195C6.07937 8 8.31958 8 12.8 8H99.2C103.68 8 105.921 8 107.632 8.87195C109.137 9.63893 110.361 10.8628 111.128 12.3681C112 14.0794 112 16.3196 112 20.8V51.2C112 55.6804 112 57.9206 111.128 59.6319C110.361 61.1372 109.137 62.3611 107.632 63.1281C105.921 64 103.68 64 99.2 64H12.8C8.31958 64 6.07937 64 4.36808 63.1281C2.86278 62.3611 1.63893 61.1372 0.871948 59.6319C0 57.9206 0 55.6804 0 51.2V20.8Z" fill="white"/>
<g clip-path="url(#clip0_4223_575)">
<path d="M35.4054 37.6435C34.4231 41.5453 30.4714 43.9411 26.5425 42.96C22.6364 41.9788 20.2379 38.0314 21.2202 34.1067C22.2024 30.2049 26.1541 27.8091 30.0831 28.7902C33.9891 29.7714 36.3876 33.7416 35.4054 37.6435Z" fill="#F7931A"/>
<path d="M31.5223 34.8391C31.6593 33.858 30.9283 33.356 29.9233 32.9909L30.2431 31.6675L29.4436 31.4621L29.1238 32.7399C28.9182 32.6943 28.6898 32.6486 28.4842 32.5802L28.804 31.2796L28.0045 31.0742L27.6847 32.3976C27.502 32.352 27.3421 32.3292 27.1822 32.2836L26.0857 32.0097L25.8802 32.8768C25.8802 32.8768 26.4741 33.0137 26.4512 33.0137C26.771 33.105 26.8395 33.3103 26.8167 33.4701L26.4512 34.976C26.4741 34.976 26.4969 34.9988 26.5426 34.9988C26.5197 34.9988 26.4969 34.976 26.4512 34.976L25.9258 37.0753C25.8801 37.1665 25.7888 37.3262 25.5604 37.2578C25.5604 37.2806 24.9665 37.1209 24.9665 37.1209L24.5781 38.0336L25.6289 38.2846C25.8345 38.3302 26.0172 38.3759 26.1999 38.4215L25.8573 39.7449L26.6568 39.9503L26.9766 38.6269C27.205 38.6953 27.4106 38.7409 27.6162 38.7866L27.2964 40.0872L28.0959 40.2925L28.4385 38.9691C29.8091 39.2201 30.837 39.1288 31.271 37.8967C31.6136 36.8927 31.2481 36.3223 30.54 35.9572C31.0426 35.9116 31.4309 35.5465 31.5223 34.8391ZM29.6948 37.4175C29.4436 38.4215 27.7761 37.8739 27.2279 37.737L27.6619 35.98C28.2101 36.1169 29.969 36.3679 29.6948 37.4175ZM29.9461 34.8391C29.7177 35.7518 28.3243 35.2955 27.8674 35.1814L28.2558 33.5842C28.7355 33.6754 30.1745 33.8808 29.9461 34.8391Z" fill="white"/>
<path d="M58.6824 39.0358C58.6824 38.1915 58.8195 37.4157 59.0936 36.6628C59.3677 35.9326 59.756 35.2709 60.2586 34.7233C60.7611 34.1756 61.3778 33.7421 62.1088 33.4227C62.8169 33.1032 63.6392 32.9435 64.5301 32.9435C65.0783 32.9435 65.5809 32.9891 66.0149 33.1032C66.4489 33.2173 66.86 33.3542 67.2027 33.5139L66.2661 35.6588C66.0149 35.5675 65.7636 35.4762 65.4895 35.385C65.2154 35.2937 64.8956 35.2709 64.5073 35.2709C63.5936 35.2709 62.8626 35.5903 62.3372 36.2064C61.8118 36.8453 61.5377 37.6895 61.5377 38.7392C61.5377 39.3781 61.6748 39.88 61.9489 40.2679C62.223 40.6558 62.7255 40.8384 63.4565 40.8384C63.822 40.8384 64.1646 40.7927 64.4844 40.7243C64.8271 40.6558 65.124 40.5646 65.3753 40.4505L65.5809 42.641C65.2382 42.7779 64.8499 42.892 64.4387 43.0061C64.0276 43.0973 63.525 43.1658 62.9311 43.1658C62.1773 43.1658 61.5149 43.0517 60.9895 42.8235C60.4641 42.5953 60.0301 42.2987 59.6875 41.9336C59.3449 41.5457 59.0936 41.1122 58.9337 40.6102C58.7509 40.131 58.6824 39.6062 58.6824 39.0358ZM70.8346 43.1886C70.1722 43.1886 69.624 43.0973 69.1215 42.892C68.6418 42.6866 68.2534 42.4128 67.9336 42.0705C67.6139 41.7054 67.3854 41.2947 67.2255 40.8156C67.0656 40.3364 66.9971 39.7888 66.9971 39.1955C66.9971 38.4653 67.1113 37.7124 67.3626 36.9822C67.591 36.252 67.9565 35.5675 68.4362 34.9971C68.893 34.4038 69.4869 33.9246 70.1494 33.5367C70.8346 33.1717 71.6113 32.9663 72.4793 32.9663C73.1189 32.9663 73.69 33.0576 74.1697 33.2629C74.6493 33.4683 75.0605 33.7421 75.3803 34.0844C75.7001 34.4494 75.9285 34.8602 76.0884 35.3393C76.2483 35.8185 76.3397 36.3661 76.3397 36.9594C76.3397 37.6895 76.2255 38.4425 75.9971 39.1727C75.7686 39.9029 75.426 40.5646 74.9691 41.1578C74.5123 41.7511 73.9412 42.2303 73.256 42.6182C72.5478 43.0061 71.7483 43.1886 70.8346 43.1886ZM42.4185 32.9891C43.0124 32.9891 43.515 33.1032 43.949 33.3086C44.383 33.5139 44.7485 33.8106 45.0226 34.1528C45.2967 34.5179 45.5251 34.9286 45.6622 35.4078C45.7992 35.887 45.8678 36.4118 45.8678 36.9594C45.8678 37.8036 45.7079 38.6251 45.3881 39.3781C45.0683 40.131 44.6343 40.7927 44.1089 41.3632C43.5607 41.9336 42.9211 42.3672 42.1901 42.6866C41.4591 43.0061 40.6597 43.1658 39.7916 43.1658C39.6774 43.1658 39.4947 43.1658 39.1977 43.1658C38.9236 43.1658 38.6038 43.1201 38.2384 43.0745C37.8729 43.0289 37.5074 42.9604 37.0962 42.8463C36.6851 42.7551 36.3196 42.6182 35.9541 42.4356L39.1521 28.996L42.0074 28.5625L40.8652 33.3314C41.1165 33.2173 41.3678 33.126 41.5962 33.0804C41.8703 33.0348 42.1444 32.9891 42.4185 32.9891ZM55.7357 33.1945H58.7966L58.2484 35.4534H55.1875L54.3652 38.8532C54.2966 39.1271 54.251 39.4009 54.2281 39.6519C54.2053 39.9029 54.251 40.1082 54.3195 40.2908C54.388 40.4733 54.5251 40.6102 54.7078 40.7015C54.8906 40.7927 55.1647 40.8612 55.5301 40.8612C55.8271 40.8612 56.1241 40.8384 56.3982 40.7699C56.6723 40.7243 56.9464 40.633 57.2433 40.5418L57.4489 42.641C57.0834 42.7779 56.6723 42.892 56.2383 42.9832C55.8043 43.0745 55.3017 43.1201 54.7078 43.1201C53.8626 43.1201 53.2002 42.9832 52.7205 42.7322C52.2408 42.4812 51.921 42.139 51.7154 41.7054C51.5099 41.2719 51.4413 40.7699 51.4642 40.1995C51.487 39.629 51.5784 39.0358 51.7154 38.3969L53.52 30.753L56.3982 30.3195L55.7357 33.1945ZM48.8373 42.9148H46.0962L48.4033 33.1945H51.1672L48.8373 42.9148ZM79.3092 42.9148H76.5681L78.8752 33.1945H81.6392L79.3092 42.9148ZM83.6036 33.6508C83.8092 33.5824 84.0376 33.5139 84.2889 33.4455C84.5402 33.377 84.8143 33.2857 85.1341 33.2173C85.4539 33.1488 85.7965 33.1032 86.1848 33.0576C86.5731 33.0119 87.0072 32.9891 87.5097 32.9891C88.9488 32.9891 89.9538 33.3998 90.5021 34.2441C91.0503 35.0883 91.1417 36.2292 90.799 37.6895L89.5427 42.9376H86.7787L87.9894 37.8036C88.0579 37.4842 88.1264 37.1647 88.1721 36.8681C88.2178 36.5715 88.2178 36.2977 88.1721 36.0695C88.1264 35.8413 88.0122 35.6588 87.8295 35.5219C87.6467 35.385 87.3726 35.3165 87.0072 35.3165C86.6417 35.3165 86.2762 35.3622 85.9107 35.4306L84.1062 42.9604H81.3651L83.6036 33.6508ZM40.0201 40.9068C40.4541 40.9068 40.8652 40.7927 41.2307 40.5874C41.619 40.382 41.9388 40.1082 42.213 39.7431C42.4871 39.4009 42.7155 38.9902 42.8754 38.5566C43.0353 38.1231 43.1267 37.6439 43.1267 37.1647C43.1267 36.5715 43.0353 36.1151 42.8297 35.7729C42.6241 35.4306 42.2586 35.2709 41.7333 35.2709C41.5505 35.2709 41.3449 35.2937 41.048 35.3622C40.7739 35.4306 40.5226 35.5447 40.2942 35.75L39.0835 40.8156C39.1521 40.8384 39.2206 40.8384 39.2891 40.8612C39.3348 40.884 39.4033 40.884 39.4719 40.884C39.5404 40.884 39.6089 40.884 39.7003 40.884C39.7916 40.884 39.883 40.9068 40.0201 40.9068ZM72.2052 35.2709C71.794 35.2709 71.4514 35.385 71.1316 35.6131C70.8118 35.8413 70.5605 36.1379 70.3549 36.503C70.1494 36.8681 69.9895 37.256 69.8753 37.6667C69.7611 38.1003 69.7154 38.4882 69.7154 38.8761C69.7154 39.4921 69.8067 39.9713 70.0123 40.3136C70.2179 40.6558 70.5605 40.8384 71.0859 40.8384C71.4971 40.8384 71.8397 40.7243 72.1595 40.4961C72.4565 40.2679 72.7306 39.9713 72.9362 39.6062C73.1417 39.2411 73.3016 38.8532 73.4159 38.4425C73.5301 38.009 73.5757 37.6211 73.5757 37.2332C73.5757 36.6171 73.4844 36.1379 73.2788 35.7957C73.0961 35.4534 72.7306 35.2709 72.2052 35.2709ZM50.1622 32.0308C49.7738 32.0308 49.4312 31.9167 49.1342 31.6885C48.8144 31.4603 48.6774 31.1181 48.6774 30.6389C48.6774 30.3879 48.7231 30.1369 48.8373 29.9087C48.9515 29.6806 49.0886 29.4752 49.2485 29.3155C49.4312 29.1558 49.6139 29.0189 49.8424 28.9276C50.0708 28.8363 50.3221 28.7907 50.5733 28.7907C50.9616 28.7907 51.3043 28.9048 51.6012 29.1329C51.8982 29.3611 52.0581 29.7034 52.0581 30.1826C52.0581 30.4335 52.0124 30.6845 51.8982 30.9127C51.784 31.1409 51.6469 31.3463 51.487 31.506C51.3043 31.6657 51.1215 31.8026 50.8931 31.8939C50.6647 31.9851 50.4363 32.0308 50.1622 32.0308ZM80.6341 32.0308C80.2458 32.0308 79.9031 31.9167 79.6062 31.6885C79.2864 31.4603 79.1493 31.1181 79.1493 30.6389C79.1493 30.3879 79.195 30.1369 79.3092 29.9087C79.4234 29.6806 79.5605 29.4752 79.7204 29.3155C79.9031 29.1558 80.0859 29.0189 80.3143 28.9276C80.5427 28.8363 80.794 28.7907 81.0453 28.7907C81.4336 28.7907 81.7762 28.9048 82.0732 29.1329C82.3701 29.3611 82.53 29.7034 82.53 30.1826C82.53 30.4335 82.4843 30.6845 82.3701 30.9127C82.2559 31.1409 82.1189 31.3463 81.959 31.506C81.7762 31.6657 81.5935 31.8026 81.3651 31.8939C81.1366 31.9851 80.8854 32.0308 80.6341 32.0308Z" fill="#4D4D4D"/>
</g>
<defs>
<clipPath id="clip0_4223_575">
<rect width="70" height="70" fill="white" transform="translate(21 0.875)"/>
</clipPath>
</defs>
</svg>
