<svg width="112" height="71" viewBox="0 0 112 71" fill="none" xmlns="http://www.w3.org/2000/svg">
<path d="M0 20.8C0 16.3196 0 14.0794 0.871948 12.3681C1.63893 10.8628 2.86278 9.63893 4.36808 8.87195C6.07937 8 8.31958 8 12.8 8H99.2C103.68 8 105.921 8 107.632 8.87195C109.137 9.63893 110.361 10.8628 111.128 12.3681C112 14.0794 112 16.3196 112 20.8V51.2C112 55.6804 112 57.9206 111.128 59.6319C110.361 61.1372 109.137 62.3611 107.632 63.1281C105.921 64 103.68 64 99.2 64H12.8C8.31958 64 6.07937 64 4.36808 63.1281C2.86278 62.3611 1.63893 61.1372 0.871948 59.6319C0 57.9206 0 55.6804 0 51.2V20.8Z" fill="white"/>
<path d="M38.2753 45.0838V26.6641H39.2036V45.0838H38.2753ZM48.0746 29.066V28.9776H51.8028V38.1875C51.8028 40.7368 49.7103 42.7998 47.1315 42.7998C44.5527 42.7998 42.4603 40.7368 42.4603 38.1875H46.2031C46.2031 38.7032 46.6157 39.1158 47.1315 39.1158C47.6473 39.1158 48.0599 38.7032 48.0599 38.1875V29.066H48.0746ZM61.5431 33.9141C61.9557 34.3562 62.2799 34.8866 62.4862 35.5055C62.6925 36.1097 62.8104 36.8023 62.8104 37.5538C62.8104 37.7307 62.8104 37.8927 62.7957 38.0401C62.7809 38.2317 62.7515 38.3201 62.722 38.3938L62.6188 38.6001H56.1646C56.194 38.7474 56.2382 38.88 56.3119 39.0127C56.4298 39.2484 56.5772 39.4695 56.7687 39.6463C56.9603 39.8231 57.1813 39.9558 57.4318 40.0589C57.6823 40.1621 57.9476 40.2063 58.2276 40.2063C58.7875 40.2063 59.2296 40.0884 59.5096 39.8379L59.6569 39.7053L62.3978 40.4568L62.1031 40.8841C61.8378 41.2672 61.5284 41.5914 61.1453 41.8714C60.7621 42.1514 60.3348 42.3724 59.8485 42.5345C59.3622 42.6966 58.817 42.7703 58.2423 42.7703C57.5792 42.7703 56.9308 42.6524 56.3266 42.4166C55.7225 42.1809 55.1773 41.8419 54.7204 41.3999C54.2636 40.9578 53.8952 40.4126 53.6153 39.7642C53.3353 39.1306 53.2027 38.3938 53.2027 37.5833C53.2027 36.8318 53.3353 36.1244 53.6005 35.5055C53.8658 34.8866 54.2194 34.3562 54.6615 33.8993C55.1036 33.4573 55.6193 33.1036 56.194 32.8678C56.7687 32.6173 57.3876 32.4994 58.0065 32.4994C58.7433 32.4994 59.4212 32.6173 60.0253 32.8531C60.6148 33.1183 61.1305 33.472 61.5431 33.9141ZM56.253 36.3013H59.8338C59.819 36.2129 59.7896 36.1392 59.7601 36.0508C59.6864 35.8592 59.5685 35.6971 59.4212 35.5498C59.2738 35.4024 59.0822 35.2845 58.8465 35.1814C58.6254 35.0929 58.3455 35.0487 58.0213 35.0487C57.7413 35.0487 57.4908 35.0929 57.2697 35.1961C57.0487 35.2992 56.8571 35.4171 56.7098 35.5792C56.5477 35.7413 56.4298 35.9181 56.3266 36.1244C56.2972 36.1687 56.2677 36.2423 56.253 36.3013ZM79.3735 33.9878C79.8303 34.4446 80.1839 34.9898 80.4492 35.6087C80.6997 36.2276 80.8323 36.9054 80.8323 37.6422C80.8323 38.379 80.6997 39.0569 80.4492 39.6905C80.1987 40.3242 79.8303 40.8694 79.3735 41.3262C78.9166 41.783 78.3714 42.1514 77.7673 42.4019C77.1483 42.6524 76.4705 42.785 75.7337 42.785C75.0117 42.785 74.3338 42.6524 73.7149 42.4019C73.096 42.1514 72.5508 41.783 72.094 41.3262C71.6519 40.8694 71.2835 40.3242 71.033 39.6905C70.7825 39.0716 70.6498 38.379 70.6498 37.6422C70.6498 36.9054 70.7825 36.2276 71.033 35.6087C71.2835 34.9898 71.6372 34.4446 72.094 33.9878C72.5508 33.5309 73.0813 33.1626 73.7149 32.912C74.3338 32.6615 75.0117 32.5289 75.7337 32.5289C76.4705 32.5289 77.1483 32.6615 77.7673 32.912C78.3714 33.1626 78.9166 33.5309 79.3735 33.9878ZM77.723 38.7474C77.8409 38.438 77.8999 38.0696 77.8999 37.6422C77.8999 37.2296 77.8409 36.8612 77.723 36.5518C77.6052 36.2571 77.4431 35.9918 77.2368 35.7855C77.0452 35.5792 76.8094 35.4319 76.5589 35.3435C76.2937 35.2403 76.0137 35.1961 75.7337 35.1961C75.439 35.1961 75.1737 35.2403 74.9085 35.3435C74.658 35.4466 74.437 35.594 74.2454 35.7855C74.0538 35.9918 73.8917 36.2423 73.7591 36.5518C73.6412 36.8612 73.5675 37.2149 73.5675 37.6422C73.5675 38.0548 73.6265 38.4232 73.7591 38.7474C73.877 39.0569 74.0391 39.3221 74.2454 39.5284C74.437 39.7347 74.658 39.8821 74.9232 39.9852C75.1885 40.0884 75.4537 40.1473 75.7484 40.1473C76.0284 40.1473 76.3084 40.0884 76.5736 39.9852C76.8242 39.8821 77.0599 39.7347 77.2515 39.5284C77.4431 39.3074 77.6052 39.0569 77.723 38.7474ZM90.779 34.9751C90.9263 35.4466 91 35.9476 91 36.4634V42.5051H88.0823V36.8318C88.0823 36.3602 87.9644 35.9624 87.7287 35.6382C87.5224 35.3582 87.154 35.2108 86.5793 35.2108C86.0782 35.2108 85.7098 35.3582 85.4741 35.6824C85.2088 36.036 85.0762 36.4486 85.0762 36.9644V42.5051H82.1585V32.7942H85.0173V33.3246C85.2088 33.1626 85.4299 33.0152 85.6656 32.912C86.2109 32.6615 86.7708 32.5436 87.3308 32.5436C87.935 32.5436 88.4802 32.6468 88.937 32.8531C89.3938 33.0594 89.7917 33.3541 90.0864 33.7225C90.3958 34.0762 90.6316 34.5035 90.779 34.9751ZM68.8521 39.9558C69.0437 39.9263 69.0879 39.9263 69.1026 39.9116L69.5741 39.7937V42.284L69.3384 42.3724C69.2794 42.3872 69.191 42.4314 68.8816 42.5051C68.631 42.564 68.3069 42.5935 67.8648 42.5935C66.9217 42.5935 66.1554 42.3282 65.6102 41.783C65.065 41.282 64.7703 40.5157 64.7703 39.5726V35.4319H63.6503V32.7942H64.7703V30.0533H67.6585V32.7942H69.5447V35.4319H67.6585V39.219C67.6585 39.4989 67.7174 39.7053 67.8206 39.8084C67.9385 39.9116 68.1448 39.9705 68.4395 39.9705C68.5868 39.9852 68.7195 39.9705 68.8521 39.9558ZM21.9627 32.7057C21.8891 32.7205 21.8154 32.6468 21.8596 32.5731C22.7437 30.9669 24.2615 29.7144 26.1919 29.2134C28.1223 28.6976 30.0674 29.0365 31.6442 29.9944C31.7178 30.0386 31.7031 30.1417 31.6147 30.1564L21.9627 32.7057ZM33.8103 32.0132C34.2377 32.6321 34.5619 33.3246 34.7682 34.0762C34.9745 34.8277 35.0481 35.594 34.9892 36.3308C34.9892 36.375 34.9597 36.4044 34.9155 36.4192L22.3017 39.7642C22.2575 39.7789 22.228 39.7642 22.1985 39.72C21.7859 39.1011 21.447 38.4085 21.2407 37.657C21.0344 36.9054 20.9607 36.1392 21.0196 35.4024C21.0196 35.3582 21.0491 35.3287 21.0933 35.314L33.7072 31.9837C33.7514 31.969 33.7956 31.9837 33.8103 32.0132ZM34.0461 39.0421C34.1198 39.0274 34.1935 39.1011 34.1493 39.1748C33.2651 40.781 31.7473 42.0335 29.8169 42.5345C27.8865 43.0503 25.9414 42.7114 24.3647 41.7535C24.291 41.7093 24.3057 41.6062 24.3941 41.5914L34.0461 39.0421Z" fill="#FF6300"/>
</svg>
