<svg width="112" height="71" viewBox="0 0 112 71" fill="none" xmlns="http://www.w3.org/2000/svg">
<path d="M0 20.8C0 16.3196 0 14.0794 0.871948 12.3681C1.63893 10.8628 2.86278 9.63893 4.36808 8.87195C6.07937 8 8.31958 8 12.8 8H99.2C103.68 8 105.921 8 107.632 8.87195C109.137 9.63893 110.361 10.8628 111.128 12.3681C112 14.0794 112 16.3196 112 20.8V51.2C112 55.6804 112 57.9206 111.128 59.6319C110.361 61.1372 109.137 62.3611 107.632 63.1281C105.921 64 103.68 64 99.2 64H12.8C8.31958 64 6.07937 64 4.36808 63.1281C2.86278 62.3611 1.63893 61.1372 0.871948 59.6319C0 57.9206 0 55.6804 0 51.2V20.8Z" fill="white"/>
<path d="M47.6585 34.6504C47.4772 36.0105 46.3891 36.0105 45.3917 36.0105H44.8476L45.301 33.3809C45.301 33.1996 45.4824 33.1089 45.6637 33.1089H45.9357C46.6611 33.1089 47.2958 33.1089 47.6585 33.4716C47.6585 33.8343 47.6585 34.197 47.6585 34.6504ZM47.2052 31.0234H43.3062C43.0342 31.0234 42.8528 31.2048 42.7622 31.4768L41.2207 41.4509C41.2207 41.6322 41.3114 41.8136 41.5834 41.8136H43.3969C43.6689 41.8136 43.8502 41.6323 43.9409 41.3602L44.3943 38.64C44.3943 38.368 44.6663 38.1867 44.9383 38.1867H46.2078C48.7466 38.1867 50.1974 36.9172 50.6508 34.469C50.8321 33.381 50.6508 32.5649 50.1974 31.9302C49.472 31.3861 48.4746 31.0234 47.2052 31.0234Z" fill="#263577"/>
<path d="M56.1809 38.277C55.9996 39.3651 55.1835 40.0905 54.0954 40.0905C53.5514 40.0905 53.098 39.9092 52.826 39.5465C52.554 39.1838 52.4633 38.7304 52.554 38.277C52.7353 37.189 53.5514 36.4636 54.6395 36.4636C55.1835 36.4636 55.6369 36.6449 55.9089 37.0076C56.0902 37.2796 56.2716 37.733 56.1809 38.277ZM58.7198 34.6501H56.9063C56.725 34.6501 56.6343 34.7408 56.5436 34.9221L56.4529 35.4662L56.3623 35.2848C55.9996 34.7408 55.0928 34.4688 54.1861 34.4688C52.1006 34.4688 50.3778 36.0102 50.0151 38.1864C49.8338 39.2745 50.1058 40.2719 50.7405 40.9972C51.2845 41.632 52.1006 41.904 53.098 41.904C54.7301 41.904 55.6369 40.8159 55.6369 40.8159L55.5462 41.3599C55.5462 41.5413 55.6369 41.7226 55.9089 41.7226H57.541C57.813 41.7226 57.9944 41.5413 58.0851 41.2693L59.0825 34.9221C59.0825 34.8314 58.9918 34.6501 58.7198 34.6501Z" fill="#263577"/>
<path d="M68.6039 34.6484H66.6998C66.5184 34.6484 66.3371 34.7391 66.2464 34.9205L63.7076 38.7287L62.6195 35.1018C62.5288 34.8298 62.3474 34.7391 62.0754 34.7391H60.2619C60.0806 34.7391 59.8993 34.9205 59.9899 35.1925L62.0754 41.1769L60.1713 43.8971C59.9899 44.0785 60.1713 44.4412 60.4433 44.4412H62.3475C62.5288 44.4412 62.7102 44.3505 62.8008 44.1692L68.9666 35.1925C69.0573 34.9205 68.876 34.6484 68.6039 34.6484Z" fill="#263577"/>
<path d="M75.223 34.6504C75.0416 36.0105 73.9536 36.0105 72.9561 36.0105H72.4121L72.8655 33.3809C72.8655 33.1996 73.0468 33.1089 73.2282 33.1089H73.5002C74.2256 33.1089 74.8603 33.1089 75.223 33.4716C75.3137 33.8343 75.3137 34.197 75.223 34.6504ZM74.7696 31.0234H70.8707C70.5986 31.0234 70.4173 31.2048 70.3266 31.4768L68.7852 41.4509C68.7852 41.6322 68.8759 41.8136 69.1479 41.8136H71.1427C71.324 41.8136 71.5054 41.7229 71.5054 41.4509L71.9587 38.64C71.9587 38.368 72.2308 38.1867 72.5028 38.1867H73.7722C76.3111 38.1867 77.7619 36.9172 78.2152 34.469C78.3966 33.381 78.2152 32.5649 77.7619 31.9302C77.1271 31.3861 76.1297 31.0234 74.7696 31.0234Z" fill="#2199D6"/>
<path d="M83.8372 38.277C83.6558 39.3651 82.8398 40.0905 81.7517 40.0905C81.2076 40.0905 80.7543 39.9092 80.4823 39.5465C80.2102 39.1838 80.1195 38.7304 80.2102 38.277C80.3916 37.189 81.2076 36.4636 82.2957 36.4636C82.8398 36.4636 83.2931 36.6449 83.5651 37.0076C83.7465 37.2796 83.9278 37.733 83.8372 38.277ZM86.376 34.6501H84.5626C84.3812 34.6501 84.2905 34.7408 84.1998 34.9221L84.1092 35.4662L84.0185 35.2848C83.6558 34.7408 82.7491 34.4688 81.8424 34.4688C79.7569 34.4688 78.0341 36.0102 77.6714 38.1864C77.49 39.2745 77.762 40.2719 78.3967 40.9972C78.9408 41.632 79.7569 41.904 80.7543 41.904C82.3864 41.904 83.2931 40.8159 83.2931 40.8159L83.2025 41.3599C83.2025 41.5413 83.2931 41.7226 83.5651 41.7226H85.1973C85.4693 41.7226 85.6506 41.5413 85.7413 41.2693L86.7387 34.9221C86.7387 34.8314 86.5574 34.6501 86.376 34.6501Z" fill="#2199D6"/>
<path d="M88.5521 31.2955L86.9199 41.4509C86.9199 41.6322 87.0106 41.8136 87.2826 41.8136H88.9147C89.1868 41.8136 89.3681 41.6323 89.4588 41.3602L91.0002 31.3861C91.0002 31.2048 90.9096 31.0234 90.6375 31.0234H88.8241C88.7334 31.0234 88.6427 31.2048 88.5521 31.2955Z" fill="#2199D6"/>
<path d="M25.0802 43.7155L25.3522 41.8114H24.7175H21.5439L23.7201 27.9383C23.7201 27.9383 23.7201 27.8477 23.8108 27.8477H23.9015H29.2512C30.974 27.8477 32.2434 28.2104 32.8781 28.9357C33.1502 29.2984 33.3315 29.6611 33.4222 30.0238C33.5129 30.4772 33.5129 30.9306 33.4222 31.5653V31.928L33.6942 32.1093C33.9662 32.2 34.1476 32.3813 34.3289 32.5627C34.6009 32.8347 34.7823 33.1974 34.7823 33.6508C34.873 34.1041 34.873 34.6482 34.6916 35.2829C34.5103 36.0083 34.3289 36.5523 34.0569 37.0964C33.7849 37.5497 33.4222 37.9124 33.0595 38.2751C32.6968 38.5471 32.1528 38.7285 31.6994 38.9098C31.1553 39.0005 30.6113 39.0912 29.9766 39.0912H29.5232C29.2512 39.0912 28.9792 39.1819 28.7072 39.3632C28.5258 39.5445 28.3445 39.8166 28.2538 40.0886V40.2699L27.7098 43.6249V43.7155V43.8062C27.7098 43.8062 27.7097 43.8062 27.6191 43.8062H25.0802V43.7155Z" fill="#263577"/>
<path d="M34.057 31.5664C34.057 31.6571 34.057 31.7478 33.9664 31.8384C33.241 35.4654 30.8835 36.6441 27.8006 36.6441H26.2591C25.8964 36.6441 25.5337 36.9162 25.5337 37.2788L24.7177 42.3566L24.5363 43.8073C24.5363 44.0794 24.7177 44.2607 24.899 44.2607H27.7099C28.0726 44.2607 28.3446 43.9887 28.3446 43.7167V43.5353L28.8887 40.2711V40.0897C28.9793 39.727 29.2513 39.5457 29.5234 39.5457H29.9767C32.6969 39.5457 34.7824 38.4576 35.3265 35.284C35.5985 33.9239 35.4172 32.8358 34.7824 32.1104C34.6011 31.9291 34.3291 31.7478 34.057 31.5664Z" fill="#2199D6"/>
<path d="M33.3311 31.2955C33.2405 31.2955 33.1498 31.2048 32.9684 31.2048C32.8778 31.2048 32.6964 31.1141 32.6057 31.1141C32.1524 31.0234 31.699 31.0234 31.2456 31.0234H27.0747C26.984 31.0234 26.8933 31.0234 26.8026 31.1141C26.6213 31.2048 26.4399 31.3861 26.4399 31.5675L25.5332 37.1892V37.3706C25.6239 37.0079 25.8959 36.7359 26.2586 36.7359H27.8C30.8829 36.7359 33.2404 35.4664 33.9658 31.9302C33.9658 31.8395 33.9658 31.7488 34.0565 31.6582C33.8752 31.5675 33.6938 31.4768 33.5125 31.3861C33.4218 31.2955 33.3311 31.2955 33.3311 31.2955Z" fill="#252C5E"/>
<path d="M26.4404 31.5663C26.4404 31.385 26.6218 31.2036 26.8031 31.113C26.8938 31.113 26.9845 31.0223 27.0751 31.0223H31.2461C31.6995 31.0223 32.2435 31.0223 32.6062 31.113C32.6969 31.113 32.8782 31.113 32.9689 31.2037C33.0596 31.2037 33.1503 31.2943 33.3316 31.2943C33.4223 31.2943 33.4223 31.2943 33.5129 31.385C33.6943 31.4757 33.8756 31.5663 34.057 31.657C34.2383 30.2969 34.057 29.3902 33.3316 28.5741C32.5155 27.6674 31.0648 27.3047 29.2513 27.3047H23.9016C23.5389 27.3047 23.1762 27.5767 23.1762 27.9394L21 41.9031C21 42.1752 21.1813 42.4472 21.4534 42.4472H24.7176L25.5337 37.1881L26.4404 31.5663Z" fill="#263577"/>
</svg>
