<svg width="112" height="71" viewBox="0 0 112 71" fill="none" xmlns="http://www.w3.org/2000/svg">
<path d="M0 20.8C0 16.3196 0 14.0794 0.871948 12.3681C1.63893 10.8628 2.86278 9.63893 4.36808 8.87195C6.07937 8 8.31958 8 12.8 8H99.2C103.68 8 105.921 8 107.632 8.87195C109.137 9.63893 110.361 10.8628 111.128 12.3681C112 14.0794 112 16.3196 112 20.8V51.2C112 55.6804 112 57.9206 111.128 59.6319C110.361 61.1372 109.137 62.3611 107.632 63.1281C105.921 64 103.68 64 99.2 64H12.8C8.31958 64 6.07937 64 4.36808 63.1281C2.86278 62.3611 1.63893 61.1372 0.871948 59.6319C0 57.9206 0 55.6804 0 51.2V20.8Z" fill="white"/>
<path fill-rule="evenodd" clip-rule="evenodd" d="M55.265 30.1814C55.755 30.4232 56.385 29.9741 56.28 31.5284L56.14 33.739C56.14 34.2225 56.07 34.3952 56.07 34.8097C56.07 35.1205 56.035 35.6386 55.965 35.9495C55.86 36.8821 55.965 37.1584 54.915 37.262V37.5383C55.16 37.6765 57.015 37.6074 57.435 37.6074C57.68 37.6074 57.47 37.6074 57.645 37.5383C57.61 37.1584 57.47 37.262 57.085 37.1929C56.735 37.1238 56.665 37.0893 56.63 36.7785C56.49 36.0877 56.735 32.5301 56.735 31.5975C56.945 31.8047 57.015 32.0465 57.12 32.3228C57.26 32.5992 57.33 32.7719 57.47 33.0482C57.61 33.3245 57.68 33.5317 57.785 33.808C57.96 34.0844 58.03 34.2571 58.17 34.5679C58.555 35.4659 59.36 36.7785 59.57 37.6765C59.99 37.6419 59.815 37.6765 60.095 37.0548C60.55 36.0877 60.83 35.6386 61.25 34.7752L62.755 31.7702C62.825 31.632 62.79 31.7357 62.825 31.6666C62.825 32.3574 62.895 32.7719 62.895 33.4626C62.895 34.188 63.035 36.5712 62.755 37.1238C62.545 37.1584 62.195 37.262 61.95 37.262V37.6074H64.75C64.995 37.6074 64.96 37.4692 64.96 37.262C64.75 37.262 64.54 37.2275 64.365 37.1584C63.84 37.0202 63.945 36.2258 63.945 35.3623C63.945 34.8097 63.875 34.4988 63.875 34.0153V30.8376C63.875 30.4922 64.05 30.3195 64.365 30.285C64.89 30.1814 65.03 30.3886 64.89 29.836C64.505 29.9051 63.245 30.0087 62.895 29.836C62.86 30.3195 62.545 31.0103 62.335 31.4248C62.09 31.9429 61.845 32.3919 61.6 32.91L59.955 35.915C59.745 35.0169 57.295 31.2521 57.295 29.836C56.945 30.0087 55.685 29.9051 55.3 29.836C55.265 29.9741 55.265 29.9741 55.265 30.1814ZM86.205 30.9067C86.205 34.3607 91 33.9807 91 31.2521C91 30.4232 91 29.9396 90.23 29.2488C89.46 28.558 88.13 28.4199 87.255 29.0416C86.66 29.4906 86.205 30.1123 86.205 30.9067ZM70.14 33.2209V33.4626C70.455 33.5663 70.63 33.808 70.63 34.2225C70.63 34.637 70.7 36.7094 70.525 37.0202C70.42 37.2275 70.105 37.2275 69.895 37.262V37.6074H72.065C72.31 37.6074 72.1 37.6074 72.275 37.5383C72.24 37.1584 71.995 37.1929 71.645 37.1238C71.505 36.5021 71.575 34.9478 71.575 34.2225C71.575 33.4281 72.975 33.0827 73.57 33.8426C73.885 34.2571 73.815 36.4676 73.71 36.9166C73.64 37.1238 73.57 37.2275 73.01 37.262V37.5383C73.29 37.6765 75.005 37.6074 75.425 37.6074V37.262C74.445 37.1584 74.655 36.813 74.655 34.8097C74.655 33.808 74.725 32.8064 73.22 32.8064C72.765 32.8064 72.31 32.9791 71.96 33.1863C71.785 33.2899 71.785 33.2899 71.575 33.3245V32.6682C71.12 32.6682 70.63 33.0827 70.14 33.2209ZM22.365 30.2505C22.855 30.4577 23.38 30.1814 23.38 30.9067L23.45 33.8771H24.43V30.6995C24.43 30.2159 24.675 30.3195 25.165 30.3195C27.055 30.3195 27.44 32.8409 26.075 33.7044C24.955 34.3952 22.225 33.9462 21 33.9462L21.28 34.0498C23.345 34.5334 28.035 35.0169 28.035 32.0465C28.035 30.8722 27.195 30.1468 26.005 29.9396C24.92 29.7324 24.115 29.9051 23.1 29.9051C22.68 29.9051 22.4 29.836 22.365 30.2505ZM36.505 32.9445C36.365 32.9791 36.155 33.0827 36.015 33.1518C35.805 33.2899 35.84 33.2899 35.91 33.5317C36.82 33.5317 36.505 33.4626 36.505 33.9462C36.505 34.2916 36.61 36.9511 36.435 37.1238C36.085 37.2965 35.805 37.0893 35.77 37.5383C36.05 37.6419 37.345 37.5729 37.905 37.6074C38.36 37.6074 38.29 37.6765 38.43 37.4002C38.08 36.9166 37.485 37.6419 37.485 36.4331C37.485 32.3228 37.17 33.9117 39.06 33.4626C39.165 33.0482 39.13 33.359 39.06 32.9445C37.59 32.9445 37.485 33.1172 37.485 32.5301C37.485 31.5975 37.59 29.3524 38.885 29.8705C39.235 30.0087 39.41 30.4577 39.725 30.4577C40.145 30.4577 40.355 30.1123 40.215 29.7669C39.865 29.007 37.17 28.7998 36.68 31.5284C36.61 31.9084 36.505 32.5646 36.505 32.9445Z" fill="#F00F0F"/>
<path fill-rule="evenodd" clip-rule="evenodd" d="M67.2696 33.2209C69.1246 33.2209 69.1946 37.3311 67.4796 37.3311C65.9396 37.3311 65.6246 34.9479 66.2196 33.9117C66.3946 33.5663 66.7796 33.2209 67.2696 33.2209ZM64.8896 35.0861V35.5696C64.8896 38.3673 69.8246 38.6436 69.8246 35.2242C69.8246 31.8739 64.8896 32.1847 64.8896 35.0861ZM79.8696 33.29C80.4296 33.3245 80.5696 33.4627 80.7796 33.9117L81.6196 36.1913C82.1096 37.4693 82.1446 37.642 81.3746 38.9545C81.1996 39.2308 81.1646 39.4035 80.7446 39.4035C80.2546 39.4381 80.1496 39.4726 80.1496 39.9562C80.1496 40.4052 80.4296 40.4397 80.7446 40.4397C81.3746 40.4397 81.6546 39.5071 82.0046 38.7473L83.8946 34.8097C84.2796 34.0499 84.4546 33.3245 85.2596 33.29V32.9446H83.1246V33.29C83.3696 33.29 83.6146 33.3591 83.8246 33.3936C83.8246 33.739 83.4396 34.6025 83.2996 34.9134C83.1596 35.1897 82.7746 36.1913 82.5996 36.2949L82.0746 34.9134C81.9696 34.568 81.6546 33.739 81.6196 33.3936C82.3196 33.2555 82.1796 33.29 82.1796 32.9446H80.0796C79.8346 32.9446 79.8696 33.0482 79.8696 33.29ZM40.4246 34.2226C39.2346 34.2226 40.7046 33.2209 41.2296 33.2209C41.7896 33.2209 42.0696 33.4972 42.0696 33.9462C42.0696 34.2571 41.6496 34.1189 41.3346 34.1535C41.0546 34.188 40.7746 34.2226 40.4246 34.2226ZM38.9896 35.2933C38.9896 37.9874 41.4396 38.0565 42.4196 37.3657C42.7346 37.1584 43.0846 36.813 43.0146 36.4331C42.2446 36.4676 42.9096 36.9857 41.5096 36.9857C40.3546 36.9857 39.6546 35.5351 39.8646 34.637C40.8096 34.637 42.2096 34.7407 43.0146 34.568C43.0146 33.8772 43.0146 33.6699 42.6646 33.29C41.8946 32.4956 40.3196 32.7374 39.6196 33.5663C39.2696 33.9808 38.9896 34.568 38.9896 35.2933ZM76.9996 34.2226H76.5796C76.5796 33.8426 76.7546 33.7045 76.9646 33.5318C77.5596 33.0482 78.6446 33.0482 78.6446 33.9462C78.6446 34.2571 78.2246 34.1189 77.9096 34.1535C77.6296 34.188 77.3496 34.2226 76.9996 34.2226ZM75.5646 35.2933C75.5646 36.1222 75.7046 36.744 76.2996 37.2621C77.0696 37.8838 78.3296 37.8492 79.0646 37.3311C79.1346 37.2621 80.0446 36.4331 79.4496 36.4331C78.9946 36.4331 79.3796 36.9857 78.0846 36.9857C77.0696 36.9857 76.5096 35.9496 76.3696 35.017C76.2996 34.4643 76.5446 34.637 77.8046 34.637C78.3996 34.637 79.0996 34.6716 79.5896 34.568C79.5896 34.2571 79.7646 33.8772 79.2746 33.3245C78.5046 32.461 76.8946 32.7374 76.1946 33.5663C75.8446 33.9462 75.5646 34.6025 75.5646 35.2933ZM28.7346 34.2226C28.8046 33.1173 30.8346 32.8064 30.8346 33.8772C30.8346 34.3262 29.1896 34.2226 28.7346 34.2226ZM27.7546 35.0861C27.7546 35.8459 27.7196 36.5713 28.4196 37.193C29.2946 37.9874 30.9396 37.9183 31.6396 36.9512C31.8846 36.5713 31.8146 36.2259 31.3946 36.6058C30.1696 37.6765 28.5946 36.5022 28.5946 34.8097C28.5946 34.4989 29.5746 34.637 30.2396 34.637C31.6396 34.637 31.8146 34.7752 31.8146 34.1535C31.8146 33.3245 31.0096 32.8064 30.0296 32.8064C28.8046 32.8064 27.7546 33.9117 27.7546 35.0861ZM43.3646 35.1551V35.6387C43.3646 37.5729 45.6046 38.1946 46.8996 37.3657C47.1096 37.2275 47.5996 36.813 47.5996 36.5022C47.5996 36.2604 47.5996 36.5022 47.5296 36.2949C47.1446 36.3295 47.3196 36.4331 47.0046 36.6749C46.0946 37.4002 44.2396 36.9167 44.2396 34.9479C44.2396 34.0499 44.8696 33.29 45.8146 33.29C46.6196 33.29 46.8296 33.9462 47.1096 33.9462C47.3546 33.9462 47.5646 33.5663 47.3546 33.1518C47.1796 32.7719 46.4446 32.8064 46.0246 32.8064C45.2196 32.8064 44.5896 33.0828 44.1696 33.4627C43.7496 33.8081 43.3646 34.4643 43.3646 35.1551ZM47.8796 33.4627C48.0546 33.5663 48.1596 33.5318 48.4746 33.5318V36.2949C48.4746 38.5746 50.9946 37.6075 50.9946 37.1239C50.9946 36.7785 50.7496 36.9857 50.6096 37.0548C50.3996 37.1584 50.2946 37.193 49.9796 37.1239C49.5946 36.9857 49.4196 36.5713 49.4196 36.0532V33.5318C51.0646 33.5318 51.1696 33.7045 50.9946 32.9446C49.3496 32.9446 49.4546 33.0828 49.4196 32.5301C49.4196 32.2883 49.4196 32.0811 49.2096 32.1502C48.9646 32.2538 48.9996 32.8064 48.1596 33.1173C47.8446 33.2209 47.8796 33.1173 47.8796 33.4627ZM32.2696 33.3245C32.2696 33.6699 32.6896 33.5318 32.6896 33.8772C32.6896 34.6716 32.7596 36.4676 32.6196 37.1239C32.4096 37.1584 32.2346 37.2275 31.9896 37.2621V37.6075H34.4046C34.6146 37.6075 34.5796 37.4693 34.6146 37.2621C34.4746 37.2621 34.0546 37.193 33.9496 37.1584C33.7396 37.1239 33.6346 36.9857 33.6346 36.7094V34.4298C33.6346 34.0844 33.8096 33.6009 34.1946 33.6009C34.4746 33.6009 34.7896 33.8772 34.8596 33.8772C35.9446 33.8772 35.5946 32.1502 34.1596 33.0482C33.9846 33.1864 33.8796 33.3591 33.6346 33.3936V32.6683C33.2846 32.6683 32.9696 32.9101 32.5496 33.0828C32.3746 33.1518 32.2696 33.1173 32.2696 33.3245ZM22.4346 37.2621V37.6075H25.5846V37.2621C24.2196 37.2275 24.4296 36.744 24.4296 34.7061C23.8696 34.7061 23.9396 34.7407 23.4496 34.637C23.4496 35.2933 23.3796 35.8114 23.3796 36.364C23.3796 37.1584 23.1346 37.193 22.4346 37.2621Z" fill="#F00F0F"/>
<path fill-rule="evenodd" clip-rule="evenodd" d="M65.1703 41.0952C65.1703 40.3353 66.0453 40.3353 66.0453 41.0952C66.0453 41.7859 65.1703 41.8896 65.1703 41.0952ZM64.6103 42.8567H65.1703V41.9241C66.7103 42.9257 67.1303 40.0935 65.8353 40.0935C65.1703 40.0935 65.4853 40.1971 65.1003 40.3007V40.0935H64.6103V42.8567ZM68.0403 40.508H68.1103C68.3203 40.508 68.3553 40.6807 68.4253 40.8188H67.6903C67.7253 40.6461 67.8303 40.508 68.0403 40.508ZM67.1303 40.8879C67.1303 41.4405 67.1303 42.0968 68.1803 42.0968C68.4253 42.0968 68.6703 42.0623 68.8453 41.9932L68.7753 41.5787C68.3553 41.6823 67.7253 41.8205 67.6903 41.2333H68.9153C68.9153 40.4734 68.8803 40.0935 67.9703 40.0935C67.5503 40.0935 67.1303 40.508 67.1303 40.8879ZM57.2953 41.3024C57.2953 42.5804 58.4853 41.9586 58.5553 41.9586L59.0803 42.0277V40.0935H58.5203C58.5203 40.7498 58.6953 41.6478 58.2053 41.6478C57.7153 41.6478 57.8553 40.6461 57.8553 40.0935H57.2953V41.3024ZM73.7103 40.508H73.7803C73.9903 40.508 74.0603 40.6461 74.1303 40.8188H73.3603C73.3953 40.6461 73.5003 40.508 73.7103 40.508ZM72.8353 41.0261C72.8353 42.5804 74.5153 42.0968 74.5153 41.9241C74.5153 41.4405 74.3403 41.6478 73.9553 41.6823C73.6403 41.6823 73.3953 41.5787 73.3603 41.2333H74.6553C74.6553 39.5409 72.8353 39.8863 72.8353 41.0261ZM71.4353 40.0935H71.1903V40.5771H71.4353V42.0277H71.9953V40.5771H72.4153V40.0935H71.9953L72.0653 39.7481C72.2403 39.6445 72.2403 39.679 72.5553 39.679V39.1955C72.0653 39.1955 71.4703 39.1609 71.4353 40.0935ZM61.8803 39.7481V40.0935H61.6003V40.5771H61.8803C61.8803 41.7859 61.7753 42.0968 62.6853 42.0968C62.9653 42.0968 62.8953 41.9586 62.8953 41.6478C62.3353 41.6478 62.4403 41.5787 62.4403 40.5771H62.8953V40.0935H62.4403V39.61C62.1953 39.679 62.1253 39.7136 61.8803 39.7481ZM77.4553 39.7481V40.0935H77.2103V40.5771H77.4553C77.4553 41.6478 77.3503 42.0968 78.2953 42.0968C78.5403 42.0968 78.5053 41.9586 78.5053 41.6478C77.9453 41.6478 78.2603 41.6823 78.0853 41.5787C77.9803 41.0952 78.0153 41.1297 78.0153 40.5771H78.5053V40.0935H78.0153V39.61C77.8053 39.679 77.7003 39.7136 77.4553 39.7481ZM59.8153 40.6116C59.8153 41.406 60.3403 41.0952 60.6553 41.5096C60.4103 41.855 60.4103 41.7169 59.8153 41.5787C59.7803 41.7859 59.5353 42.0968 60.3753 42.0968C61.2503 42.0968 61.4253 41.3024 60.8653 40.957C60.7253 40.8879 60.4803 40.8534 60.4103 40.7498C60.2353 40.5771 60.4103 40.508 60.6203 40.508C60.8303 40.508 60.7253 40.5425 61.0053 40.5771C61.0753 40.4044 61.0403 40.3007 61.1103 40.1626C60.8303 40.128 59.8153 39.8517 59.8153 40.6116ZM75.1453 41.0952C75.1453 41.7514 75.5653 42.0968 76.2303 42.0968C76.4753 42.0968 76.5103 42.0623 76.7203 42.0277V41.5787C75.2503 41.9241 75.6353 40.508 76.3003 40.508C76.4753 40.508 76.3703 40.5425 76.6503 40.5771C76.8953 40.0244 76.6853 40.0935 76.0203 40.0935C75.5303 40.0935 75.1453 40.5771 75.1453 41.0952ZM56.0003 41.1642C56.0003 41.8205 55.4753 41.6132 55.2653 41.5787C55.2653 41.855 55.2303 41.855 55.1953 42.0277C56.8753 42.4422 56.5603 41.1642 56.5603 39.4027H56.0003V41.1642ZM69.6153 42.0277H70.1403C70.1403 41.0261 70.0003 40.7498 70.5253 40.6116C70.7003 40.5425 70.7003 40.8188 70.7003 40.0935C70.3153 40.0935 70.3153 40.128 70.0703 40.3007V40.0935H69.6153V42.0277Z" fill="black"/>
<path fill-rule="evenodd" clip-rule="evenodd" d="M88.2701 30.2833C88.4451 30.2833 88.4451 30.1797 88.4451 30.7323C88.4451 30.905 88.4451 31.5958 88.3751 31.6994C88.3401 31.7685 88.2351 31.7685 88.1301 31.7685V31.8376H88.7601V31.7685C88.5151 31.7685 88.5151 31.8031 88.5151 31.285V30.5251C88.5851 30.6287 88.6551 30.7323 88.6901 30.8705C88.7251 30.905 88.7601 30.9741 88.7951 31.0086L89.2151 31.8376C89.2501 31.8721 89.2501 31.8031 89.2851 31.7685L89.7401 30.8705C89.7751 30.8359 89.9151 30.5596 89.9151 30.5251V31.5613C89.9151 31.7685 89.8801 31.734 89.7051 31.7685V31.8376H90.3351V31.7685C90.1251 31.7685 90.1251 31.734 90.1251 31.5267V30.3869C90.1251 30.2488 90.1951 30.2833 90.3001 30.2833V30.1797H89.9151C89.9151 30.1797 89.9151 30.2142 89.8801 30.2142L89.8451 30.3524C89.8101 30.3869 89.7751 30.456 89.7401 30.5251C89.7401 30.5596 89.7051 30.6287 89.6701 30.6632C89.6351 30.7323 89.6351 30.8014 89.6001 30.8359C89.5301 30.9396 89.4951 31.0777 89.4251 31.1813C89.4251 31.2504 89.3901 31.285 89.3551 31.354C89.3551 31.3886 89.2851 31.4922 89.2851 31.5267L88.6201 30.1797H88.2701V30.2833Z" fill="#FEFDFD"/>
<path fill-rule="evenodd" clip-rule="evenodd" d="M87.1151 30.2833H87.2901C87.3251 30.2833 87.3251 30.3524 87.3251 30.3869V31.0086C87.3601 31.0432 87.5001 31.0086 87.5351 31.0086V30.2488C87.7451 30.2488 87.8501 30.2488 87.9551 30.3524C88.0601 30.4215 88.0951 30.5596 88.0951 30.7323C88.0601 30.8705 87.9901 30.9741 87.8501 31.0086C87.6751 31.1123 87.2201 31.1123 87.0101 31.0777C86.9751 31.0432 86.9051 31.0432 86.8701 31.0432C86.9401 31.0777 87.0801 31.1123 87.1501 31.1123C87.2901 31.1468 87.4301 31.1468 87.5351 31.1468C87.8501 31.1468 88.2001 31.1123 88.3051 30.8014C88.3401 30.6978 88.3401 30.5942 88.3051 30.4905C88.2351 30.3178 88.0601 30.2142 87.8501 30.1797H87.1151V30.2833ZM87.1151 31.7685V31.8376H87.7451V31.7685C87.5001 31.7685 87.5351 31.7685 87.5351 31.3886V31.2159H87.3251V31.5613C87.3251 31.7685 87.2901 31.734 87.1151 31.7685Z" fill="#FEFDFD"/>
</svg>
