<svg width="112" height="71" viewBox="0 0 112 71" fill="none" xmlns="http://www.w3.org/2000/svg">
<path d="M0 20.8C0 16.3196 0 14.0794 0.871948 12.3681C1.63893 10.8628 2.86278 9.63893 4.36808 8.87195C6.07937 8 8.31958 8 12.8 8H99.2C103.68 8 105.921 8 107.632 8.87195C109.137 9.63893 110.361 10.8628 111.128 12.3681C112 14.0794 112 16.3196 112 20.8V51.2C112 55.6804 112 57.9206 111.128 59.6319C110.361 61.1372 109.137 62.3611 107.632 63.1281C105.921 64 103.68 64 99.2 64H12.8C8.31958 64 6.07937 64 4.36808 63.1281C2.86278 62.3611 1.63893 61.1372 0.871948 59.6319C0 57.9206 0 55.6804 0 51.2V20.8Z" fill="white"/>
<path fill-rule="evenodd" clip-rule="evenodd" d="M71.2812 29.6488C72.8681 29.6488 74.1544 28.36 74.1544 26.7708C74.1544 25.1806 72.8681 23.8906 71.2812 23.8906C69.6961 23.8906 68.4105 25.1806 68.4105 26.7708C68.4105 28.36 69.6961 29.6488 71.2812 29.6488ZM49.2763 31.203C49.1467 31.5295 48.2135 34.1717 45.9568 36.9101V25.2011L39.9437 26.3923V47.6163H45.9568V41.0558C47.6984 43.6742 48.5583 47.6163 48.5583 47.6163H55.7608C55.0483 44.6473 51.9319 39.1729 51.9319 39.1729C54.7289 35.6182 55.9574 31.8305 56.1528 31.203H49.2763ZM65.0845 30.9815C59.6986 31.1547 56.9646 33.5769 56.9646 38.392V47.6163H62.8404V40.0941C62.8404 37.2109 63.2169 35.975 66.63 35.8571V31.0659C66.0556 30.9437 65.0845 30.9815 65.0845 30.9815ZM29.8591 33.5401C29.1226 33.4915 27.4175 33.3811 27.4175 31.8423C27.4175 29.9854 29.8724 29.9854 30.7932 29.9854C32.4122 29.9854 34.5091 30.465 36.0065 30.914C36.0065 30.914 36.8418 31.2092 37.5527 31.5115L37.6187 31.5295V26.444L37.528 26.4171C35.7608 25.7973 33.7059 25.2011 29.8962 25.2011C23.3274 25.2011 21 29.037 21 32.3231C21 34.2175 21.81 38.6757 29.3328 39.19C29.9706 39.2293 31.663 39.327 31.663 40.9172C31.663 42.2301 30.2774 43.0043 27.9468 43.0043C25.3928 43.0043 22.9154 42.3514 21.4105 41.7322V46.9699C23.6633 47.5618 26.2028 47.8577 29.1791 47.8577C35.6018 47.8577 38.4784 44.2284 38.4784 40.6313C38.4784 36.5527 35.2595 33.9028 29.8591 33.5401ZM68.3685 47.6163H74.1967V31.2216H68.3685V47.6163ZM85.1709 26.2463V47.6163H91V25.2011L85.1709 26.2463ZM76.6655 26.2463L82.4891 25.2011V47.6163H76.6655V26.2463Z" fill="url(#paint0_linear_4223_570)"/>
<defs>
<linearGradient id="paint0_linear_4223_570" x1="39.9308" y1="23.8906" x2="45.2154" y2="53.4482" gradientUnits="userSpaceOnUse">
<stop stop-color="#6B195F"/>
<stop offset="1" stop-color="#4C255B"/>
</linearGradient>
</defs>
</svg>
