<svg width="112" height="71" viewBox="0 0 112 71" fill="none" xmlns="http://www.w3.org/2000/svg">
<path d="M0 20.8C0 16.3196 0 14.0794 0.871948 12.3681C1.63893 10.8628 2.86278 9.63893 4.36808 8.87195C6.07937 8 8.31958 8 12.8 8H99.2C103.68 8 105.921 8 107.632 8.87195C109.137 9.63893 110.361 10.8628 111.128 12.3681C112 14.0794 112 16.3196 112 20.8V51.2C112 55.6804 112 57.9206 111.128 59.6319C110.361 61.1372 109.137 62.3611 107.632 63.1281C105.921 64 103.68 64 99.2 64H12.8C8.31958 64 6.07937 64 4.36808 63.1281C2.86278 62.3611 1.63893 61.1372 0.871948 59.6319C0 57.9206 0 55.6804 0 51.2V20.8Z" fill="white"/>
<path d="M51.7258 30.9644H49.655C49.0289 30.9644 48.5473 31.157 48.2584 31.7831L44.3093 40.7889H47.1025C47.1025 40.7889 47.5841 39.5849 47.6804 39.296C47.9694 39.296 50.7145 39.296 51.0998 39.296C51.1961 39.6331 51.4369 40.7408 51.4369 40.7408H53.9412L51.7258 30.9644ZM48.451 37.2733C48.6918 36.6953 49.5105 34.5282 49.5105 34.5282C49.5105 34.5763 49.7513 33.9503 49.8476 33.6131L50.0403 34.48C50.0403 34.48 50.57 36.8398 50.6663 37.3214H48.451V37.2733Z" fill="#3362AB"/>
<path d="M44.5019 37.5622C44.5019 39.5849 42.6719 40.9333 39.8304 40.9333C38.6264 40.9333 37.4706 40.6925 36.8445 40.4036L37.2298 38.1882L37.5669 38.3327C38.4338 38.718 39.0117 38.8625 40.0712 38.8625C40.8418 38.8625 41.6605 38.5735 41.6605 37.8993C41.6605 37.4658 41.3234 37.1769 40.2639 36.6953C39.2525 36.2137 37.9041 35.4431 37.9041 34.0465C37.9041 32.1201 39.7823 30.8198 42.4311 30.8198C43.4424 30.8198 44.3093 31.0125 44.839 31.2533L44.4538 33.3723L44.2611 33.1796C43.7795 32.987 43.1534 32.7944 42.2384 32.7944C41.2271 32.8425 40.7455 33.276 40.7455 33.6612C40.7455 34.0947 41.3234 34.4318 42.2384 34.8652C43.7795 35.5876 44.5019 36.4063 44.5019 37.5622Z" fill="#3362AB"/>
<path d="M21 31.0608L21.0482 30.8682H25.1899C25.7678 30.8682 26.2012 31.0608 26.3457 31.6869L27.2607 36.0212C26.3457 33.7096 24.2267 31.8314 21 31.0608Z" fill="#F9B50B"/>
<path d="M33.0881 30.9647L28.8982 40.7411H26.0568L23.6488 32.5539C25.3825 33.6616 26.8273 35.3953 27.3571 36.5993L27.6461 37.6107L30.2467 30.9165H33.0881V30.9647Z" fill="#3362AB"/>
<path d="M34.1957 30.9165H36.8445L35.1589 40.7411H32.5101L34.1957 30.9165Z" fill="#3362AB"/>
<g clip-path="url(#clip0_4223_560)">
<path d="M90.3267 48.3718V48.4386H90.3882C90.4018 48.4386 90.4134 48.4354 90.4218 48.4302C90.4296 48.425 90.4341 48.4159 90.4341 48.4049C90.4341 48.3938 90.4296 48.3854 90.4218 48.3802C90.4134 48.3744 90.4018 48.3718 90.3882 48.3718H90.3267ZM90.3888 48.325C90.4205 48.325 90.4451 48.3322 90.4626 48.3465C90.4801 48.3607 90.4885 48.3802 90.4885 48.4049C90.4885 48.4256 90.482 48.4425 90.4678 48.4561C90.4542 48.4691 90.4348 48.4775 90.4089 48.4808L90.4905 48.5749H90.427L90.3513 48.4814H90.3267V48.5749H90.2736V48.325H90.3888ZM90.3726 48.6612C90.4018 48.6612 90.429 48.6553 90.4536 48.6443C90.4788 48.6333 90.5008 48.6183 90.5196 48.5995C90.5384 48.5807 90.5533 48.5586 90.5643 48.5327C90.5746 48.5074 90.5805 48.4801 90.5805 48.4509C90.5805 48.4217 90.5746 48.3945 90.5643 48.3692C90.5533 48.3439 90.5384 48.3211 90.5196 48.3023C90.5008 48.2835 90.4788 48.2686 90.4536 48.2576C90.429 48.2472 90.4018 48.242 90.3726 48.242C90.3435 48.242 90.3157 48.2472 90.2904 48.2576C90.2645 48.2686 90.2418 48.2835 90.2231 48.3023C90.2043 48.3211 90.1894 48.3439 90.179 48.3692C90.168 48.3945 90.1629 48.4217 90.1629 48.4509C90.1629 48.4801 90.168 48.5074 90.179 48.5327C90.1894 48.5586 90.2043 48.5807 90.2231 48.5995C90.2418 48.6183 90.2645 48.6333 90.2904 48.6443C90.3157 48.6553 90.3435 48.6612 90.3726 48.6612ZM90.3726 48.1816C90.4108 48.1816 90.4458 48.1888 90.4795 48.203C90.5125 48.2167 90.541 48.2361 90.5662 48.2608C90.5908 48.2848 90.6102 48.3134 90.6245 48.3465C90.6387 48.3789 90.6458 48.4139 90.6458 48.4509C90.6458 48.4879 90.6387 48.523 90.6245 48.5554C90.6102 48.5878 90.5908 48.6164 90.5662 48.641C90.541 48.6651 90.5125 48.6845 90.4795 48.6988C90.4458 48.7131 90.4108 48.7202 90.3726 48.7202C90.3338 48.7202 90.2982 48.7131 90.2645 48.6988C90.2308 48.6845 90.2017 48.6651 90.1771 48.641C90.1525 48.6164 90.1331 48.5878 90.1188 48.5554C90.1046 48.523 90.0975 48.4879 90.0975 48.4509C90.0975 48.4139 90.1046 48.3789 90.1188 48.3465C90.1331 48.3134 90.1525 48.2848 90.1771 48.2608C90.2017 48.2361 90.2308 48.2167 90.2645 48.203C90.2982 48.1888 90.3338 48.1816 90.3726 48.1816ZM65.1482 47.2193C65.1482 46.743 65.4596 46.3518 65.9685 46.3518C66.4547 46.3518 66.7829 46.7262 66.7829 47.2193C66.7829 47.7125 66.4547 48.0869 65.9685 48.0869C65.4596 48.0869 65.1482 47.6956 65.1482 47.2193ZM67.3371 47.2193V45.8644H66.7493V46.1934C66.5628 45.9494 66.2799 45.7963 65.8953 45.7963C65.1372 45.7963 64.5428 46.392 64.5428 47.2193C64.5428 48.0473 65.1372 48.6423 65.8953 48.6423C66.2799 48.6423 66.5628 48.4892 66.7493 48.2452V48.5742H67.3371V47.2193ZM87.2028 47.2193C87.2028 46.743 87.5142 46.3518 88.0231 46.3518C88.51 46.3518 88.8376 46.7262 88.8376 47.2193C88.8376 47.7125 88.51 48.0869 88.0231 48.0869C87.5142 48.0869 87.2028 47.6956 87.2028 47.2193ZM89.3924 47.2193V44.7762H88.8039V46.1934C88.6175 45.9494 88.3345 45.7963 87.95 45.7963C87.1918 45.7963 86.5975 46.392 86.5975 47.2193C86.5975 48.0473 87.1918 48.6423 87.95 48.6423C88.3345 48.6423 88.6175 48.4892 88.8039 48.2452V48.5742H89.3924V47.2193ZM74.6343 46.3239C75.013 46.3239 75.2565 46.562 75.3186 46.9812H73.9157C73.9785 46.5899 74.2154 46.3239 74.6343 46.3239ZM74.646 45.7963C73.8535 45.7963 73.2993 46.3745 73.2993 47.2193C73.2993 48.0811 73.8762 48.6423 74.6855 48.6423C75.0927 48.6423 75.4656 48.5405 75.7938 48.2627L75.5057 47.826C75.2791 48.0071 74.9904 48.1096 74.7191 48.1096C74.3404 48.1096 73.9953 47.9338 73.9105 47.4458H75.9182C75.924 47.3725 75.9298 47.2985 75.9298 47.2193C75.924 46.3745 75.4034 45.7963 74.646 45.7963ZM81.7444 47.2193C81.7444 46.743 82.0558 46.3518 82.5646 46.3518C83.0509 46.3518 83.3791 46.7262 83.3791 47.2193C83.3791 47.7125 83.0509 48.0869 82.5646 48.0869C82.0558 48.0869 81.7444 47.6956 81.7444 47.2193ZM83.9333 47.2193V45.8644H83.3454V46.1934C83.1583 45.9494 82.8761 45.7963 82.4915 45.7963C81.7334 45.7963 81.139 46.392 81.139 47.2193C81.139 48.0473 81.7334 48.6423 82.4915 48.6423C82.8761 48.6423 83.1583 48.4892 83.3454 48.2452V48.5742H83.9333V47.2193ZM78.4243 47.2193C78.4243 48.0415 78.9954 48.6423 79.8668 48.6423C80.274 48.6423 80.5453 48.5515 80.8393 48.3192L80.557 47.8429C80.3362 48.0019 80.1044 48.0869 79.8493 48.0869C79.38 48.0811 79.0349 47.741 79.0349 47.2193C79.0349 46.6976 79.38 46.3576 79.8493 46.3518C80.1044 46.3518 80.3362 46.4368 80.557 46.5957L80.8393 46.1195C80.5453 45.8871 80.274 45.7963 79.8668 45.7963C78.9954 45.7963 78.4243 46.3972 78.4243 47.2193ZM86.0038 45.7963C85.6645 45.7963 85.4438 45.9553 85.291 46.1934V45.8644H84.7083V48.5742H85.2968V47.0552C85.2968 46.6068 85.4891 46.3576 85.8737 46.3576C85.9928 46.3576 86.1171 46.3745 86.2414 46.4257L86.4227 45.8703C86.2925 45.819 86.1229 45.7963 86.0038 45.7963ZM70.2447 46.0799C69.9618 45.893 69.5721 45.7963 69.1422 45.7963C68.4572 45.7963 68.0163 46.1253 68.0163 46.6639C68.0163 47.1058 68.3445 47.3783 68.9492 47.4633L69.227 47.5029C69.5494 47.5483 69.7016 47.6333 69.7016 47.7865C69.7016 47.996 69.4866 48.1154 69.0852 48.1154C68.678 48.1154 68.384 47.985 68.1859 47.8319L67.9088 48.2906C68.2312 48.5288 68.6385 48.6423 69.0794 48.6423C69.8602 48.6423 70.3127 48.2738 70.3127 47.7579C70.3127 47.2816 69.9566 47.0324 69.3681 46.9474L69.091 46.9072C68.8366 46.8735 68.6326 46.8229 68.6326 46.6412C68.6326 46.4426 68.8249 46.3239 69.1474 46.3239C69.4924 46.3239 69.8265 46.4543 69.9903 46.5562L70.2447 46.0799ZM77.83 45.7963C77.4908 45.7963 77.27 45.9553 77.1178 46.1934V45.8644H76.5352V48.5742H77.123V47.0552C77.123 46.6068 77.3153 46.3576 77.6999 46.3576C77.819 46.3576 77.9433 46.3745 78.0676 46.4257L78.2489 45.8703C78.1188 45.819 77.9491 45.7963 77.83 45.7963ZM72.8131 45.8644H71.8517V45.0423H71.2573V45.8644H70.7089V46.403H71.2573V47.6392C71.2573 48.2679 71.5008 48.6423 72.1961 48.6423C72.4512 48.6423 72.7451 48.5632 72.9316 48.4328L72.7619 47.9279C72.5865 48.0298 72.3942 48.0811 72.2414 48.0811C71.9475 48.0811 71.8517 47.8994 71.8517 47.6275V46.403H72.8131V45.8644ZM64.023 48.5742V46.8735C64.023 46.233 63.6157 45.8021 62.9592 45.7963C62.6142 45.7905 62.2581 45.8982 62.0088 46.2784C61.8224 45.978 61.5284 45.7963 61.1154 45.7963C60.8266 45.7963 60.5443 45.8813 60.3236 46.1986V45.8644H59.735V48.5742H60.3287V47.072C60.3287 46.6016 60.589 46.3518 60.9911 46.3518C61.3815 46.3518 61.5789 46.6068 61.5789 47.0662V48.5742H62.1733V47.072C62.1733 46.6016 62.4445 46.3518 62.8349 46.3518C63.2363 46.3518 63.4286 46.6068 63.4286 47.0662V48.5742H64.023Z" fill="#231F20"/>
<path d="M90.6892 39.5625V39.1667H90.5863L90.4671 39.4386L90.3487 39.1667H90.2451V39.5625H90.3182V39.264L90.4296 39.5216H90.5053L90.6167 39.2634V39.5625H90.6892ZM90.0359 39.5625V39.2342H90.168V39.1673H89.8314V39.2342H89.9634V39.5625H90.0359Z" fill="#F79410"/>
<path d="M78.9838 41.2652H70.0741V25.2168H78.9838V41.2652Z" fill="#FF5F00"/>
<path d="M70.6448 33.2398C70.6448 29.9843 72.1656 27.0844 74.5339 25.2156C72.8021 23.8491 70.6163 23.0334 68.2409 23.0334C62.6174 23.0334 58.0588 27.6029 58.0588 33.2398C58.0588 38.8768 62.6174 43.4463 68.2409 43.4463C70.6163 43.4463 72.8021 42.6306 74.5339 41.2641C72.1656 39.3952 70.6448 36.4953 70.6448 33.2398Z" fill="#EB001B"/>
<path d="M91 33.2398C91 38.8768 86.4414 43.4463 80.8179 43.4463C78.4425 43.4463 76.2567 42.6306 74.5242 41.2641C76.8932 39.3952 78.414 36.4953 78.414 33.2398C78.414 29.9843 76.8932 27.0844 74.5242 25.2156C76.2567 23.8491 78.4425 23.0334 80.8179 23.0334C86.4414 23.0334 91 27.6029 91 33.2398Z" fill="#F79E1B"/>
</g>
<defs>
<clipPath id="clip0_4223_560">
<rect width="32.9412" height="32.9412" fill="white" transform="translate(58.0588 19.4062)"/>
</clipPath>
</defs>
</svg>
