<svg width="20" height="20" viewBox="0 0 20 20" fill="none" xmlns="http://www.w3.org/2000/svg">
<g clip-path="url(#clip0_4223_257)">
<path d="M8.61108 0C9.83842 0 10.8333 0.918394 10.8333 2.05129L10.8329 2.56388L13.8889 2.5641C15.1162 2.5641 16.1111 3.48248 16.1111 4.61537L16.1106 9.74333H17.7777L17.7776 6.57907C17.1303 6.36782 16.6667 5.79798 16.6667 5.1282C16.6667 4.27853 17.4128 3.58974 18.3333 3.58974C19.2538 3.58974 20 4.27853 20 5.1282C20 5.79793 19.5364 6.36774 18.8892 6.57899L18.8889 10.2445L18.8888 10.2508C18.8889 10.2526 18.8889 10.2545 18.8889 10.2564C18.8889 10.5397 18.6458 10.7692 18.3459 10.7692L16.1106 10.7689L16.1111 17.9487C16.1111 19.0816 15.1162 20 13.8889 20H2.22222C0.994917 20 0 19.0816 0 17.9487V4.61537C0 3.48248 0.994917 2.5641 2.22222 2.5641L5.27767 2.56388L5.27775 2.05129C5.27775 0.954941 6.20958 0.0594826 7.382 0.00284761L7.5 0H8.61108ZM12.7903 13.8461H9.43183C9.132 13.8461 8.88892 14.0757 8.88892 14.3589C8.88892 14.6422 9.132 14.8717 9.43183 14.8717H12.7903C13.0903 14.8717 13.3333 14.6422 13.3333 14.3589C13.3333 14.0757 13.0903 13.8461 12.7903 13.8461ZM11.9444 5.1282H4.16667C3.2462 5.1282 2.5 5.81699 2.5 6.66667V10.2564C2.5 11.1061 3.2462 11.7948 4.16667 11.7948H11.9444C12.8649 11.7948 13.6111 11.1061 13.6111 10.2564V6.66667C13.6111 5.81699 12.8649 5.1282 11.9444 5.1282ZM5.8335 6.15331L5.83333 6.16571V10.7573C5.83333 10.7613 5.83342 10.7652 5.8335 10.7692L4.16667 10.7692C3.85985 10.7692 3.61111 10.5397 3.61111 10.2564V6.66667C3.61111 6.38345 3.85985 6.15384 4.16667 6.15384L5.8335 6.15331ZM9.16708 6.15331L9.16667 6.16571V10.7573C9.16667 10.7613 9.16667 10.7652 9.16683 10.7692L6.9435 10.7689L6.94442 10.7573V6.16571C6.94442 6.16157 6.94442 6.15743 6.94433 6.15331H9.16708ZM11.9444 6.15384C12.2512 6.15384 12.5 6.38345 12.5 6.66667V10.2564C12.5 10.5397 12.2512 10.7692 11.9444 10.7692L10.2771 10.7689L10.2777 10.7573V6.16571C10.2777 6.16157 10.2777 6.15743 10.2776 6.15331L11.9444 6.15384Z" fill="#4D3C6A"/>
</g>
<defs>
<clipPath id="clip0_4223_257">
<rect width="20" height="20" fill="white"/>
</clipPath>
</defs>
</svg>
