<svg width="20" height="20" viewBox="0 0 20 20" fill="none" xmlns="http://www.w3.org/2000/svg">
<g clip-path="url(#clip0_4223_270)">
<path d="M14.5931 3.27398C14.5145 3.03714 14.3057 2.86441 14.0549 2.82867L11.6673 2.48812L10.5992 0.364609C10.4873 0.141406 10.2555 0 10.0016 0C9.74772 0 9.51594 0.141406 9.40398 0.364609L8.33586 2.48816L5.94791 2.82871C5.69703 2.86449 5.48826 3.03718 5.40973 3.27402C5.3312 3.51085 5.39671 3.77089 5.57857 3.94468L7.30687 5.59757L6.89849 7.93131C6.8555 8.17686 6.95839 8.42498 7.16369 8.57131C7.36944 8.71826 7.64157 8.73635 7.86594 8.62115L10.0018 7.51924L12.1372 8.62115C12.3667 8.73932 12.6378 8.71494 12.8394 8.57131C13.0447 8.42502 13.1476 8.1769 13.1046 7.93155L12.6967 5.59757L14.4245 3.94468C14.6061 3.77089 14.6712 3.51081 14.5931 3.27398Z" fill="#4D3C6A"/>
<path d="M12.6667 9.96815H7.33348C6.96531 9.96815 6.66682 10.2611 6.66682 10.6224V20H13.3334V10.6224C13.3334 10.2611 13.0349 9.96815 12.6667 9.96815Z" fill="#4D3C6A"/>
<path d="M0.667319 12.5852C0.29914 12.5852 0.000656128 12.8781 0.000656128 13.2394V19.4827C0.000656128 19.7684 0.236649 20 0.52773 20H5.33392V12.5852H0.667319Z" fill="#4D3C6A"/>
<path d="M19.334 15.2022H14.6674V20H19.4736C19.7647 20 20.0007 19.7684 20.0007 19.4827V15.8564C20.0006 15.4951 19.7021 15.2022 19.334 15.2022Z" fill="#4D3C6A"/>
</g>
<defs>
<clipPath id="clip0_4223_270">
<rect width="20" height="20" fill="white"/>
</clipPath>
</defs>
</svg>
