<svg width="20" height="20" viewBox="0 0 20 20" fill="none" xmlns="http://www.w3.org/2000/svg">
<g clip-path="url(#clip0_4223_260)">
<path d="M17.6042 1.6H15.349L13.9229 0.234C13.8455 0.159736 13.7535 0.10084 13.6524 0.0606883C13.5513 0.0205443 13.4428 -7.97681e-05 13.3333 2.31848e-07H6.66667C6.55717 -7.97681e-05 6.44875 0.0205443 6.34767 0.0606883C6.2465 0.10084 6.1545 0.159736 6.07709 0.234L4.65104 1.6H2.39584C1.98144 1.6 1.58401 1.75803 1.29098 2.03934C0.997953 2.32065 0.833336 2.70218 0.833336 3.1V18.5C0.833336 18.8978 0.997953 19.2794 1.29098 19.5606C1.58401 19.842 1.98144 20 2.39584 20H8.75C8.8605 20 8.9665 19.9578 9.04467 19.8829C9.12275 19.8078 9.16667 19.7061 9.16667 19.6V8.02696C9.1635 7.82024 9.242 7.62008 9.38634 7.46664C9.53067 7.3132 9.73025 7.21792 9.94483 7.2C10.0588 7.19272 10.1731 7.20808 10.2807 7.24496C10.3883 7.28192 10.4868 7.33968 10.5701 7.41472C10.6534 7.48976 10.7198 7.5804 10.7651 7.68112C10.8103 7.78176 10.8336 7.89032 10.8333 8V19.6C10.8333 19.7061 10.8773 19.8078 10.9553 19.8829C11.0335 19.9578 11.1395 20 11.25 20H17.6042C18.0186 20 18.416 19.842 18.709 19.5606C19.0021 19.2794 19.1667 18.8978 19.1667 18.5V3.1C19.1667 2.70218 19.0021 2.32065 18.709 2.03934C18.416 1.75803 18.0186 1.6 17.6042 1.6ZM5.68125 8.308C5.62034 8.35608 5.54642 8.38656 5.46817 8.39592C5.38992 8.40528 5.3105 8.39312 5.23917 8.36088C5.16775 8.32864 5.10742 8.2776 5.06509 8.21368C5.02275 8.14984 5.00017 8.07568 5 8V3.531L6.5875 2.007L9.03225 5.528L5.68125 8.308ZM15 8C15.0002 8.07608 14.9778 8.15072 14.9353 8.21504C14.8928 8.27928 14.8322 8.33064 14.7604 8.36296C14.6899 8.39568 14.6111 8.40816 14.5333 8.39912C14.4557 8.39008 14.3823 8.35984 14.3219 8.312L10.9677 5.53L13.4125 2.009L15 3.531V8Z" fill="#4D3C6A"/>
</g>
<defs>
<clipPath id="clip0_4223_260">
<rect width="20" height="20" fill="white"/>
</clipPath>
</defs>
</svg>
