<svg width="20" height="20" viewBox="0 0 20 20" fill="none" xmlns="http://www.w3.org/2000/svg">
<path d="M6.52809 0C6.22369 0 6.0715 0 5.96359 0.0241604C5.42353 0.145077 5.08439 0.681637 5.20688 1.22134C5.23135 1.32917 5.29666 1.46665 5.42726 1.7416L6.5 4L7.61814 1.76373C7.75694 1.48611 7.82635 1.34731 7.85302 1.23884C7.98668 0.695437 7.64842 0.148118 7.10261 0.0246454C6.99366 0 6.83847 0 6.52809 0Z" fill="#4D3C6A"/>
<path d="M5.3125 12.32C5.3125 9.6725 7.41455 7.52 10 7.52C12.5854 7.52 14.6875 9.6725 14.6875 12.32C14.6875 14.9675 12.5854 17.12 10 17.12C7.41455 17.12 5.3125 14.9675 5.3125 12.32Z" fill="#4D3C6A"/>
<path fill-rule="evenodd" clip-rule="evenodd" d="M10.5022 0C10.1488 0 9.97209 0 9.81555 0.0532194C9.6771 0.100289 9.55066 0.17715 9.44514 0.278386C9.32583 0.39285 9.24448 0.549701 9.0818 0.863402L6.71875 5.42C4.22485 6.66875 2.5 9.29 2.5 12.32C2.5 16.5538 5.86548 20 10 20C14.1345 20 17.5 16.5538 17.5 12.32C17.5 9.29 15.7751 6.66875 13.2812 5.42C13.6885 4.44424 13.8236 4.12061 13.9601 3.79759C14.0945 3.47965 14.2303 3.16231 14.6283 2.22433C14.9436 1.48153 15.1012 1.11013 15.0436 0.810863C14.9932 0.549383 14.8404 0.318493 14.6193 0.169978C14.3664 0 13.963 0 13.1562 0H10.5022ZM15.625 12.32C15.625 9.14375 13.1018 6.56 10 6.56C6.89819 6.56 4.375 9.14375 4.375 12.32C4.375 15.4963 6.89819 18.08 10 18.08C13.1018 18.08 15.625 15.4963 15.625 12.32Z" fill="#4D3C6A"/>
</svg>
