<svg width="20" height="20" viewBox="0 0 20 20" fill="none" xmlns="http://www.w3.org/2000/svg">
<g clip-path="url(#clip0_4223_267)">
<path d="M3.84615 8.33388e-05C3.74422 -0.00147835 3.64302 0.0189226 3.54843 0.0601003C3.45384 0.101278 3.36774 0.162412 3.29515 0.239948C3.22256 0.317484 3.16492 0.409877 3.12557 0.511758C3.08623 0.613638 3.06597 0.722973 3.06597 0.83341C3.06597 0.943846 3.08623 1.05318 3.12557 1.15506C3.16492 1.25694 3.22256 1.34934 3.29515 1.42687C3.36774 1.50441 3.45384 1.56554 3.54843 1.60672C3.64302 1.6479 3.74422 1.6683 3.84615 1.66674V3.64426C3.50747 3.45675 3.12767 3.33339 2.69231 3.33339C1.21447 3.33339 0 4.64905 0 6.25003C0 7.37601 0.677835 8.25158 1.48137 8.96974C2.28491 9.68789 3.29025 10.2922 4.28486 10.804C5.16674 11.2578 6.01815 11.6195 6.72176 11.8994C7.65524 13.2711 8.46154 14.1666 8.46154 14.1666H10H11.5385C11.5385 14.1666 12.3448 13.2711 13.2782 11.8994C13.9819 11.6195 14.8333 11.2578 15.7151 10.804C16.7098 10.2922 17.7151 9.68789 18.5186 8.96974C19.3222 8.25158 20 7.37601 20 6.25003C20 4.64905 18.7855 3.33339 17.3077 3.33339C16.8723 3.33339 16.4925 3.45675 16.1538 3.64426V1.66674C16.2558 1.6683 16.357 1.6479 16.4516 1.60672C16.5462 1.56554 16.6323 1.50441 16.7048 1.42687C16.7774 1.34934 16.8351 1.25694 16.8744 1.15506C16.9138 1.05318 16.934 0.943846 16.934 0.83341C16.934 0.722973 16.9138 0.613638 16.8744 0.511758C16.8351 0.409877 16.7774 0.317484 16.7048 0.239948C16.6323 0.162412 16.5462 0.101278 16.4516 0.0601003C16.357 0.0189226 16.2558 -0.00147835 16.1538 8.33388e-05H3.84615ZM2.69231 5.00004C3.24359 5.00004 3.71653 5.52351 4.08954 6.24189C4.09584 6.25403 4.09988 6.26556 4.10607 6.2777C4.36181 7.39314 4.78236 8.47182 5.27193 9.45476C5.16146 9.40027 5.05663 9.35711 4.94591 9.30014C4.01745 8.82237 3.09971 8.25484 2.46094 7.68394C1.82216 7.11304 1.53846 6.58237 1.53846 6.25003C1.53846 5.54936 2.04553 5.00004 2.69231 5.00004ZM17.3077 5.00004C17.9545 5.00004 18.4615 5.54936 18.4615 6.25003C18.4615 6.58237 18.1778 7.11304 17.5391 7.68394C16.9003 8.25484 15.9826 8.82237 15.0541 9.30014C14.9434 9.35711 14.8385 9.40027 14.7281 9.45476C15.2176 8.47182 15.6382 7.39314 15.8939 6.2777C15.9001 6.26556 15.9042 6.25403 15.9105 6.24189C16.2835 5.52351 16.7564 5.00004 17.3077 5.00004ZM7.69231 15.8333C6.84231 15.8333 6.15385 16.5791 6.15385 17.4999V18.3333C6.05191 18.3317 5.95071 18.3521 5.85612 18.3933C5.76153 18.4345 5.67544 18.4956 5.60284 18.5731C5.53025 18.6507 5.47261 18.7431 5.43327 18.8449C5.39392 18.9468 5.37366 19.0562 5.37366 19.1666C5.37366 19.277 5.39392 19.3864 5.43327 19.4882C5.47261 19.5901 5.53025 19.6825 5.60284 19.7601C5.67544 19.8376 5.76153 19.8987 5.85612 19.9399C5.95071 19.9811 6.05191 20.0015 6.15385 19.9999H13.8462C13.9481 20.0015 14.0493 19.9811 14.1439 19.9399C14.2385 19.8987 14.3246 19.8376 14.3972 19.7601C14.4697 19.6825 14.5274 19.5901 14.5667 19.4882C14.6061 19.3864 14.6263 19.277 14.6263 19.1666C14.6263 19.0562 14.6061 18.9468 14.5667 18.8449C14.5274 18.7431 14.4697 18.6507 14.3972 18.5731C14.3246 18.4956 14.2385 18.4345 14.1439 18.3933C14.0493 18.3521 13.9481 18.3317 13.8462 18.3333V17.4999C13.8462 16.5791 13.1577 15.8333 12.3077 15.8333H7.69231Z" fill="#4D3C6A"/>
</g>
<defs>
<clipPath id="clip0_4223_267">
<rect width="20" height="20" fill="white"/>
</clipPath>
</defs>
</svg>
